<?xml version="1.0" encoding="utf-8"?>
<!-- Svg Vector Icons : http://www.onlinewebfonts.com/icon -->
<!DOCTYPE svg PUBLIC "-//W3C//DTD SVG 1.1//EN" "http://www.w3.org/Graphics/SVG/1.1/DTD/svg11.dtd">
<svg version="1.1" xmlns="http://www.w3.org/2000/svg" xmlns:xlink="http://www.w3.org/1999/xlink" x="0px" y="0px" viewBox="0 0 1000 1000" enable-background="new 0 0 1000 1000" xml:space="preserve">
<metadata> Svg Vector Icons : http://www.onlinewebfonts.com/icon </metadata>
<g><g transform="translate(0.000000,511.000000) scale(0.100000,-0.100000)"><path d="M2955,4270.6c-282.2-102.2-449.9-341.5-449.9-642.1c0-169.7,38.9-282.2,143.1-421.2c59.3-79.7,81.8-128.8,81.8-182v-71.6h-409c-478.5,0-566.4-20.4-709.6-167.7c-153.4-161.5-159.5-179.9-165.6-654.4l-6.1-425.3h-73.6c-47,0-92,18.4-132.9,53.2c-34.8,28.6-110.4,75.7-167.7,106.3c-90,47-128.8,55.2-288.3,55.2c-149.3,0-202.4-10.2-278.1-47c-153.4-75.7-255.6-177.9-329.2-327.2c-59.3-120.7-67.5-153.4-65.4-300.6c2-198.4,47-314.9,182-458c249.5-265.8,660.5-286.3,934.5-45c53.2,45,92,63.4,147.2,63.4h73.6V401.7V-5.2l63.4-128.8c67.5-130.9,175.9-229,310.8-280.2c59.3-20.4,546-38.8,546-18.4c0,4.1-18.4,53.2-40.9,106.3c-126.8,292.4-40.9,678.9,210.6,944.7c251.5,265.8,582.8,351.7,916.1,239.3c274-94.1,439.6-243.3,564.4-513.3c94.1-202.4,90-527.6-6.1-758.7c-8.2-20.4,45-26.6,231.1-26.6c210.6,0,253.6,6.1,345.6,49.1c137,63.4,243.3,175.8,294.5,312.9c34.8,96.1,40.9,159.5,40.9,486.7v378.3h73.6c57.2,0,94.1-18.4,167.7-81.8C5282.1,594,5486.5,530.6,5650.1,549c423.3,49.1,699.4,449.9,588.9,856.8c-128.8,472.4-717.8,662.5-1077.7,345.6c-45-38.9-106.3-69.5-157.4-77.7c-83.8-12.3-83.8-12.3-98.2,63.4c-6.1,40.9-8.2,224.9-4.1,404.9c12.3,417.2-4.1,486.7-155.4,640c-155.4,153.4-229,171.8-721.8,171.8h-394.7v87.9c0,69.5,12.3,100.2,53.2,139.1c157.5,147.2,216.8,454,130.9,680.9c-57.3,149.3-194.3,302.6-337.4,376.3C3343.5,4305.4,3094,4321.7,2955,4270.6z"/><path d="M6621.4,4266.5c-208.6-75.7-368.1-247.4-427.4-468.3c-57.3-214.7,0-449.9,153.4-623.7c57.3-65.4,63.4-85.9,51.1-147.2l-12.3-73.6h-413.1c-458,0-523.5-16.4-662.5-149.3c-124.7-118.6-145.2-184-149.3-472.4c0-143.1,2.1-263.8,6.2-267.9c4.1-4.1,65.4,10.2,137,30.7c239.2,75.7,548,45,750.5-73.6c296.5-173.8,503-605.3,443.7-924.3c-45-231.1-104.3-351.7-249.5-496.9c-145.2-143.1-292.4-227-474.4-265.8c-149.3-32.7-415.1-12.3-535.7,40.9l-100.2,42.9l14.3-282.2c16.3-314.9,40.9-384.4,165.6-494.9c141.1-122.7,182-132.9,650.3-143.1c288.3-6.1,431.5-18.4,435.6-32.7c4.1-12.3-26.6-63.4-67.5-112.5c-120.7-145.2-159.5-249.5-159.5-437.6c0-198.4,57.3-341.5,190.2-474.4c331.3-329.2,865-239.3,1089.9,182c40.9,75.7,47,118.6,47,292.4c0,222.9-26.6,302.6-153.4,447.8c-116.6,132.9-110.4,135,333.3,135c214.7,0,427.4,10.2,468.3,20.4c108.4,30.7,241.3,139,312.9,255.6l61.3,98.2l10.2,451.9l10.2,451.9l77.7,6.1c63.4,6.1,92-6.1,153.4-59.3c392.6-345.6,1002-135,1108.3,382.4c47,220.8-36.8,454-216.7,619.6c-247.4,227-629.8,235.2-875.2,20.4c-79.7-69.5-104.3-81.8-169.7-75.7l-77.7,6.1l-10.2,449.9c-10.2,490.8-14.3,505.1-147.2,654.4c-128.8,149.3-180,161.5-660.5,173.8l-429.4,10.2l-6.1,65.4c-4.1,49.1,14.3,92,83.8,186.1c110.4,151.3,143.1,263.8,132.9,458.1c-12.3,249.5-141.1,445.8-368.1,560.3C6999.7,4307.4,6776.9,4321.7,6621.4,4266.5z"/><path d="M2981.6,634.8C2785.3,571.5,2619.6,414,2546,221.8c-85.9-227-26.6-533.7,130.9-680.9c40.9-38.8,53.2-69.5,53.2-137v-85.9l-433.5-8.2c-404.9-6.1-441.7-10.2-521.4-53.2c-128.8-67.5-222.9-157.5-276.1-265.8c-42.9-87.9-47-128.8-57.3-515.3l-10.2-419.2l-67.5-6.1c-55.2-6.1-83.8,8.2-151.3,67.5c-130.9,120.7-245.4,161.6-435.6,161.6c-135,0-184-8.2-276.1-53.2c-200.4-94.1-323.1-245.4-378.3-462.1C81.9-2397.7,94.2-2520.4,174-2684c192.2-400.8,711.6-507.1,1047-212.7c53.2,45,92,63.4,147.2,63.4h73.6v-382.4c0-212.7,10.2-419.2,20.4-460.1c40.9-143.1,143.1-265.8,282.2-337.4l130.9-67.5h417.2h417.1v71.6c0,49.1-20.4,98.1-69.5,161.6c-104.3,137-145.2,263.8-145.2,441.7c0,132.9,10.2,173.8,67.5,290.4c73.6,149.3,175.9,251.5,329.2,327.2c77.7,38.8,126.8,47,288.3,47c202.4,0,278.1-24.5,433.5-139.1c92-69.5,196.3-239.2,233.1-380.4c53.2-214.7,14.3-388.5-137-588.9c-51.1-69.5-79.7-128.8-79.7-169.7v-61.3h425.3c400.8,0,429.4,2,525.5,49.1c132.9,61.3,267.9,212.7,306.7,345.6c22.5,75.7,30.7,204.5,30.7,478.5c0,231.1,8.2,374.2,20.4,374.2c10.2,0,67.5-36.8,126.8-81.8c149.3-112.5,269.9-149.3,462.1-139c255.6,12.3,449.9,137,570.5,368.1c49.1,94.1,55.2,132.9,55.2,292.4c2,151.3-6.2,200.4-45,278.1c-75.7,153.4-177.9,255.6-325.2,329.2c-249.5,122.7-533.7,81.8-746.4-104.3c-40.9-34.7-81.8-63.4-94.1-63.4c-14.3,0-24.5,145.2-28.6,415.1l-6.1,417.2l-61.3,118.6c-38.8,75.7-96.1,147.2-149.3,188.1c-143.1,108.4-247.4,128.8-683,128.8h-384.4v83.8c0,65.4,14.3,100.2,63.4,157.5c112.5,126.8,151.3,237.2,151.3,433.5c0,149.3-8.2,190.2-57.3,288.3c-65.4,137-204.5,269.9-337.4,331.3C3329.2,659.4,3100.2,673.7,2981.6,634.8z"/></g></g>
</svg>